HIERARCHY
ROOT Hips
{
	OFFSET 0.00000 0.00000 0.00000
	CHANNELS 6 Xposition Yposition Zposition Zrotation Yrotation Xrotation 
	JOINT LHipJoint
	{
		OFFSET 0 0 0
		CHANNELS 3 Zrotation Yrotation Xrotation
		JOINT LeftUpLeg
		{
			OFFSET 1.58895 -1.83665 0.71753
			CHANNELS 3 Zrotation Yrotation Xrotation
			JOINT LeftLeg
			{
				OFFSET 2.50528 -6.88321 0.00000
				CHANNELS 3 Zrotation Yrotation Xrotation
				JOINT LeftFoot
				{
					OFFSET 2.63244 -7.23257 0.00000
					CHANNELS 3 Zrotation Yrotation Xrotation
					JOINT LeftToeBase
					{
						OFFSET 0.23691 -0.65090 1.72750
						CHANNELS 3 Zrotation Yrotation Xrotation
						End Site
						{
							OFFSET 0.00000 -0.00000 0.92561
						}
					}
				}
			}
		}
	}
	JOINT RHipJoint
	{
		OFFSET 0 0 0
		CHANNELS 3 Zrotation Yrotation Xrotation
		JOINT RightUpLeg
		{
			OFFSET -1.51435 -1.83665 0.71753
			CHANNELS 3 Zrotation Yrotation Xrotation
			JOINT RightLeg
			{
				OFFSET -2.54551 -6.99375 0.00000
				CHANNELS 3 Zrotation Yrotation Xrotation
				JOINT RightFoot
				{
					OFFSET -2.66027 -7.30903 0.00000
					CHANNELS 3 Zrotation Yrotation Xrotation
					JOINT RightToeBase
					{
						OFFSET -0.22981 -0.63138 2.03959
						CHANNELS 3 Zrotation Yrotation Xrotation
						End Site
						{
							OFFSET -0.00000 -0.00000 1.07060
						}
					}
				}
			}
		}
	}
	JOINT LowerBack
	{
		OFFSET 0 0 0
		CHANNELS 3 Zrotation Yrotation Xrotation
		JOINT Spine
		{
			OFFSET -0.02651 1.86275 -0.11152
			CHANNELS 3 Zrotation Yrotation Xrotation
			JOINT Spine1
			{
				OFFSET 0.01019 1.86224 0.04087
				CHANNELS 3 Zrotation Yrotation Xrotation
				JOINT Neck
				{
					OFFSET 0 0 0
					CHANNELS 3 Zrotation Yrotation Xrotation
					JOINT Neck1
					{
						OFFSET -0.01926 1.80512 0.08867
						CHANNELS 3 Zrotation Yrotation Xrotation
						JOINT Head
						{
							OFFSET 0.05516 1.76451 -0.38475
							CHANNELS 3 Zrotation Yrotation Xrotation
							End Site
							{
								OFFSET 0.01592 1.82587 -0.14001
							}
						}
					}
				}
				JOINT LeftShoulder
				{
					OFFSET 0 0 0
					CHANNELS 3 Zrotation Yrotation Xrotation
					JOINT LeftArm
					{
						OFFSET 3.47116 1.51376 0.14491
						CHANNELS 3 Zrotation Yrotation Xrotation
						JOINT LeftForeArm
						{
							OFFSET 4.78095 -0.00000 0.00000
							CHANNELS 3 Zrotation Yrotation Xrotation
							JOINT LeftHand
							{
								OFFSET 3.58615 -0.00000 -0.00000
								CHANNELS 3 Zrotation Yrotation Xrotation
								JOINT LeftFingerBase
								{
									OFFSET 0 0 0
									CHANNELS 3 Zrotation Yrotation Xrotation
									JOINT LeftHandIndex1
									{
										OFFSET 0.65981 -0.00000 0.00000
										CHANNELS 3 Zrotation Yrotation Xrotation
										End Site
										{
											OFFSET 0.53196 -0.00000 0.00000
										}
									}
								}
								JOINT LThumb
								{
									OFFSET 0 0 0
									CHANNELS 3 Zrotation Yrotation Xrotation
									End Site
									{
										OFFSET 0.54008 -0.00000 0.54008
									}
								}
							}
						}
					}
				}
				JOINT RightShoulder
				{
					OFFSET 0 0 0
					CHANNELS 3 Zrotation Yrotation Xrotation
					JOINT RightArm
					{
						OFFSET -3.31725 1.61216 0.35156
						CHANNELS 3 Zrotation Yrotation Xrotation
						JOINT RightForeArm
						{
							OFFSET -4.48913 -0.00000 0.00000
							CHANNELS 3 Zrotation Yrotation Xrotation
							JOINT RightHand
							{
								OFFSET -3.70510 -0.00000 0.00000
								CHANNELS 3 Zrotation Yrotation Xrotation
								JOINT RightFingerBase
								{
									OFFSET 0 0 0
									CHANNELS 3 Zrotation Yrotation Xrotation
									JOINT RightHandIndex1
									{
										OFFSET -0.44914 -0.00000 0.00000
										CHANNELS 3 Zrotation Yrotation Xrotation
										End Site
										{
											OFFSET -0.36211 -0.00000 0.00000
										}
									}
								}
								JOINT RThumb
								{
									OFFSET 0 0 0
									CHANNELS 3 Zrotation Yrotation Xrotation
									End Site
									{
										OFFSET -0.36763 -0.00000 0.36763
									}
								}
							}
						}
					}
				}
			}
		}
	}
}
MOTION
Frames: 5
Frame Time: .0083333
-1.6249 18.5387 3.8036 -4.2534 -32.2371 14.0255 0.0000 0.0000 0.0000 -9.7815 10.6950 -21.6526 2.7042 10.2000 29.6270 1.8631 7.9348 -29.6599 8.5000 -16.4750 -54.3442 0.0000 0.0000 0.0000 17.2600 24.4360 -18.3491 -1.5169 -7.7776 22.0407 -0.2298 4.9446 -8.6817 -0.1197 2.2300 -6.1418 -6.5506 -2.2872 24.6590 -3.8117 -5.0082 6.6235 1.0254 -2.4336 -6.1465 7.8159 8.1457 -11.1535 -5.4019 10.9453 28.1935 -1.8439 4.9512 11.8144 -0.0000 0.0000 0.0000 -78.0451 -37.0440 55.8383 48.1788 -52.2340 -24.7270 -0.0000 0.0000 -16.8787 50.1081 -55.3626 -44.5467 -7.1250 0.0000 -0.0000 -0.6004 -36.1221 0.8390 -0.0000 0.0000 0.0000 77.5455 27.9588 61.6084 -136.0446 50.2464 -98.5674 0.0000 -0.0000 -15.7252 -37.6500 -34.3296 23.5132 7.1250 -0.0000 -0.0000 -7.6929 -70.6230 4.7138
-1.6131 18.5442 3.8064 -4.4625 -32.0084 14.0614 0.0000 0.0000 0.0000 -9.5558 10.6730 -21.6393 2.7087 10.2079 29.6528 1.8560 7.8392 -29.5540 8.5418 -16.5037 -54.4916 0.0000 0.0000 0.0000 17.5080 24.1863 -18.1120 -1.4692 -7.6597 21.6850 -0.2314 4.8141 -8.6874 -0.1236 2.2661 -6.2416 -6.7128 -2.5165 24.5167 -3.8848 -5.3302 6.6502 1.1169 -2.5918 -6.0188 8.4435 8.5150 -10.7017 -5.9472 11.4859 27.6431 -2.0805 5.2117 11.6360 0.0000 -0.0000 0.0000 -78.1255 -37.8982 55.9331 50.0777 -53.0268 -26.2362 -0.0000 0.0000 -17.0030 50.7508 -55.5199 -45.2552 -7.1250 0.0000 -0.0000 -0.4784 -36.5331 0.6693 0.0000 -0.0000 0.0000 77.3614 28.5943 60.9230 -136.4039 50.0619 -98.8432 0.0000 -0.0000 -14.4861 -38.0054 -33.7951 23.4924 7.1250 -0.0000 -0.0000 -8.4980 -70.1580 5.1215
-1.5951 18.5485 3.8039 -4.7438 -31.8025 14.2163 0.0000 0.0000 0.0000 -9.2954 10.6571 -21.7728 2.7201 10.2276 29.7168 1.8369 7.7664 -29.3851 8.5838 -16.5323 -54.6391 0.0000 0.0000 0.0000 17.7853 23.8653 -18.0268 -1.4167 -7.5276 21.2881 -0.2241 4.7180 -8.5467 -0.1299 2.3228 -6.3986 -6.7878 -2.7841 24.3481 -4.0116 -5.6822 6.6790 1.1065 -2.7656 -5.8876 9.0095 8.8871 -10.3435 -6.4331 12.0279 27.2288 -2.2801 5.4689 11.5296 0.0000 0.0000 0.0000 -78.0125 -38.8080 55.9564 52.0634 -53.7945 -27.8307 -0.0000 0.0000 -16.9656 51.9137 -55.5057 -46.4417 -7.1250 0.0000 -0.0000 -0.0806 -37.0502 0.1128 0.0000 0.0000 0.0000 77.2432 29.2674 60.2625 -136.6012 49.9595 -98.9944 0.0000 -0.0000 -13.2005 -38.3921 -33.4416 23.5890 7.1250 -0.0000 -0.0000 -9.2660 -69.8965 5.5329
-1.5708 18.5524 3.7989 -5.0718 -31.6217 14.4233 0.0000 0.0000 0.0000 -9.0055 10.6056 -21.9587 2.7390 10.2600 29.8230 1.8299 7.6085 -29.2413 8.5597 -16.5159 -54.5545 0.0000 0.0000 0.0000 18.0810 23.5009 -18.0236 -1.3653 -7.3953 20.8919 -0.2093 4.6646 -8.2767 -0.1309 2.3322 -6.4248 -6.7161 -3.0906 24.2147 -4.2405 -6.0602 6.7324 0.9112 -2.9528 -5.7740 9.4426 9.2737 -10.2483 -6.5772 12.5217 27.1498 -2.3289 5.7157 11.5725 0.0000 0.0000 0.0000 -77.7085 -39.7679 55.8264 53.9485 -54.4690 -29.3584 -0.0000 0.0000 -16.6849 52.6644 -55.7263 -47.2911 -7.1250 0.0000 -0.0000 0.0300 -37.5647 -0.0420 0.0000 0.0000 0.0000 77.2794 29.9542 59.6515 -136.6725 49.9223 -99.0490 0.0000 -0.0000 -12.0249 -38.7261 -33.1391 23.6716 7.1250 -0.0000 -0.0000 -9.9162 -69.6723 5.8740
-1.5436 18.5556 3.7918 -5.3583 -31.5436 14.6480 0.0000 0.0000 0.0000 -8.7937 10.5928 -22.2081 2.7632 10.3014 29.9584 1.8338 7.4198 -29.1511 8.5119 -16.4831 -54.3861 0.0000 0.0000 0.0000 18.2849 23.2111 -18.0809 -1.3166 -7.2676 20.5106 -0.1903 4.6234 -7.9210 -0.1174 2.2088 -6.0830 -6.6876 -3.3623 24.0458 -4.5274 -6.4028 6.8381 0.6621 -3.1270 -5.5924 10.0242 9.6380 -10.1069 -6.9056 12.9962 26.8026 -2.4712 5.9554 11.5302 -0.0000 0.0000 0.0000 -77.2946 -40.8566 55.5621 55.5702 -55.0091 -30.6826 -0.0000 0.0000 -16.2888 53.2203 -55.9407 -47.9391 -7.1250 0.0000 -0.0000 0.0753 -37.9841 -0.1057 -0.0000 0.0000 0.0000 77.4712 30.6816 59.1355 -136.5577 49.9821 -98.9611 0.0000 -0.0000 -10.9499 -38.8041 -32.6146 23.4328 7.1250 -0.0000 -0.0000 -10.1855 -69.1211 5.9088
